<?xml version="1.0" standalone="no"?>
<!DOCTYPE svg PUBLIC "-//W3C//DTD SVG 20010904//EN"
 "http://www.w3.org/TR/2001/REC-SVG-20010904/DTD/svg10.dtd">
<svg version="1.0" xmlns="http://www.w3.org/2000/svg"
 width="512.000000pt" height="512.000000pt" viewBox="0 0 512.000000 512.000000"
 preserveAspectRatio="xMidYMid meet">
<metadata>
Created by potrace 1.16, written by Peter Selinger 2001-2019
</metadata>
<g transform="translate(0.000000,512.000000) scale(0.100000,-0.100000)"
fill="#000000" stroke="none">
<path d="M752 4379 c-71 -28 -144 -101 -171 -174 -21 -55 -21 -70 -21 -810 l0
-755 -115 0 c-91 0 -125 -4 -170 -21 -74 -28 -146 -100 -174 -174 -21 -55 -21
-70 -21 -765 0 -695 0 -710 21 -765 28 -75 100 -146 175 -174 55 -21 69 -21
538 -19 l481 3 49 24 c63 31 116 84 147 147 22 45 24 63 27 217 l3 167 345 0
c189 0 344 -3 344 -7 0 -5 -9 -39 -18 -78 l-18 -70 -153 -5 c-136 -4 -154 -7
-167 -24 -11 -15 -14 -57 -14 -178 0 -145 2 -160 20 -178 20 -20 29 -20 1488
-18 l1467 3 49 24 c63 31 116 84 147 147 l24 49 3 1122 c2 1118 2 1122 -19
1178 -28 74 -99 146 -174 174 -45 17 -79 21 -170 21 l-115 0 0 355 c0 335 -1
357 -21 410 -28 74 -100 146 -174 174 l-56 21 -1752 -1 c-1736 0 -1752 0
-1805 -20z m3558 -161 c33 -17 51 -35 68 -68 21 -43 22 -52 22 -377 l0 -333
-590 0 c-580 0 -590 0 -647 -22 -76 -28 -153 -106 -182 -183 -21 -55 -21 -71
-21 -725 l0 -670 -720 0 -720 0 0 270 c0 319 -6 347 -94 436 -89 88 -117 94
-436 94 l-270 0 0 733 0 733 23 44 c16 33 34 51 67 68 l44 22 1706 0 1706 0
44 -22z m480 -960 c33 -17 51 -35 68 -68 l22 -44 0 -1066 0 -1066 -22 -44
c-17 -33 -35 -51 -68 -68 l-44 -22 -746 0 -746 0 -44 23 c-33 16 -51 34 -67
67 l-23 44 0 1066 0 1066 23 44 c16 33 34 51 67 68 l44 22 746 0 746 0 44 -22z
m-4261 -879 c18 -56 42 -110 52 -120 17 -17 36 -19 219 -19 183 0 202 2 219
19 10 10 34 65 53 121 l33 102 68 -5 c104 -9 158 -50 177 -133 12 -51 12
-1277 0 -1328 -11 -49 -37 -85 -81 -111 -33 -19 -52 -20 -469 -20 -421 0 -436
1 -470 21 -48 28 -78 75 -85 137 -3 29 -5 336 -3 682 3 609 4 631 23 664 37
62 89 88 185 90 l46 1 33 -101z m387 64 l-13 -38 -103 0 -103 0 -13 38 -13 37
129 0 129 0 -13 -37z m2044 -883 l0 -120 -720 0 -720 0 0 120 0 120 720 0 720
0 0 -120z m-207 -352 c10 -40 17 -76 17 -80 0 -5 -94 -8 -210 -8 -115 0 -210
3 -210 8 0 4 7 40 17 80 l17 72 176 0 176 0 17 -72z m221 -272 c3 -13 9 -31
12 -40 6 -15 -40 -16 -490 -16 l-496 0 0 40 0 40 484 0 484 0 6 -24z"/>
<path d="M3225 3175 l-25 -24 0 -951 0 -951 25 -24 24 -25 751 0 751 0 24 25
25 24 0 951 0 951 -25 24 -24 25 -751 0 -751 0 -24 -25z m1415 -975 l0 -840
-640 0 -640 0 0 840 0 840 640 0 640 0 0 -840z"/>
<path d="M3865 1095 c-50 -49 -15 -135 55 -135 41 0 80 39 80 80 0 41 -39 80
-80 80 -19 0 -40 -9 -55 -25z"/>
<path d="M340 1100 c-13 -13 -20 -33 -20 -60 0 -27 7 -47 20 -60 18 -18 33
-20 180 -20 147 0 162 2 180 20 13 13 20 33 20 60 0 27 -7 47 -20 60 -18 18
-33 20 -180 20 -147 0 -162 -2 -180 -20z"/>
<path d="M820 1100 c-13 -13 -20 -33 -20 -60 0 -64 24 -80 120 -80 96 0 120
16 120 80 0 64 -24 80 -120 80 -67 0 -83 -3 -100 -20z"/>
</g>
</svg>
